PathFileType	4	(X/Y/Z)	 s07c0101.trc
DataRate	CameraRate	NumFrames	NumMarkers	Units	OrigDataRate	OrigDataStartFrame	OrigNumFrames
200	200	7	48	mm	200	1751	2000
Frame#	Time	racr			lacr			c7			jug			rlel			rdr			llel			ldr			s2			lic			ric			lasi			rasi			rpsi			lpsi			rgt			lgt			rth1			rth2			rth3			rth4			rlfc			rmfc			rsh1			rsh2			rsh3			rsh4			rlmal			rcal			rtoe			rmt5			lth1			lth2			lth4			lth3			llfc			lmfc			lsh1			lsh2			lsh3			lsh4			llmal			lcal			ltoe			lmt5			SBIKE			LBIKE			RBIKE			
		X1	Y1	Z1	X2	Y2	Z2	X3	Y3	Z3	X4	Y4	Z4	X5	Y5	Z5	X6	Y6	Z6	X7	Y7	Z7	X8	Y8	Z8	X9	Y9	Z9	X10	Y10	Z10	X11	Y11	Z11	X12	Y12	Z12	X13	Y13	Z13	X14	Y14	Z14	X15	Y15	Z15	X16	Y16	Z16	X17	Y17	Z17	X18	Y18	Z18	X19	Y19	Z19	X20	Y20	Z20	X21	Y21	Z21	X22	Y22	Z22	X23	Y23	Z23	X24	Y24	Z24	X25	Y25	Z25	X26	Y26	Z26	X27	Y27	Z27	X28	Y28	Z28	X29	Y29	Z29	X30	Y30	Z30	X31	Y31	Z31	X32	Y32	Z32	X33	Y33	Z33	X34	Y34	Z34	X35	Y35	Z35	X36	Y36	Z36	X37	Y37	Z37	X38	Y38	Z38	X39	Y39	Z39	X40	Y40	Z40	X41	Y41	Z41	X42	Y42	Z42	X43	Y43	Z43	X44	Y44	Z44	X45	Y45	Z45	X46	Y46	Z46	X47	Y47	Z47	X48	Y48	Z48	
1751	8.7550	431.393460	1454.494847	-53.336772	449.207231	1448.076952	-322.124082	394.455584	1506.401018	-191.799845	365.399654	1368.344537	-196.258366	534.551548	1133.673753	13.870580	723.019034	910.104288	-55.660944	545.471380	1140.746099	-435.954022	727.537595	902.503443	-391.622771	-154.355344	1218.718360	-233.100892	7.615187	1280.734313	-374.198716	6.560923	1267.087802	-80.915885	39.729163	1204.065869	-350.921381	29.000291	1217.065279	-101.544432	-128.103477	1259.119052	-182.093108	-116.167575	1270.548758	-290.244709	-31.725162	1144.987979	-38.537569	-44.186413	1118.100489	-405.492552	105.738170	1089.976905	-44.018452	191.963082	1079.092786	-57.908026	261.971469	1030.340056	-61.338646	202.688705	1111.083648	-74.293214	383.911769	950.314904	-101.238765	372.429854	932.573333	-206.763855	343.283847	815.280149	-73.276405	335.436046	727.295321	-87.078992	288.276641	654.507397	-78.754980	349.647494	724.456541	-124.842549	236.992768	524.734359	-71.305726	163.269502	496.781459	-99.689906	441.928833	417.787636	-122.912611	362.229086	401.189205	-49.843590	25.854720	1011.300896	-415.252596	98.069387	960.727046	-416.808238	125.704394	983.879785	-409.052427	136.003753	880.196133	-409.289409	234.282305	734.999520	-373.080088	221.521011	718.726575	-276.468639	148.964406	614.312936	-397.935089	120.020217	534.780958	-381.294767	53.325306	474.847470	-390.719773	124.510407	534.591860	-339.524522	-29.607196	370.369381	-392.495272	-106.072315	363.689681	-361.002106	144.932264	219.460278	-351.854250	63.028365	232.665285	-416.715705	-260.854712	980.310273	-230.617307	-75.844636	83.510789	-435.393646	-82.147445	79.520321	-38.025335	
1752	8.7600	430.954759	1454.156496	-53.810268	448.882058	1447.808580	-322.718987	394.119269	1506.081351	-192.366621	365.087088	1368.015586	-196.752499	534.531854	1133.539104	13.608518	723.046490	910.044598	-55.727784	545.197238	1140.437109	-435.979536	727.522751	902.424038	-391.507156	-154.508381	1217.733724	-233.081875	7.211405	1280.192555	-374.197532	6.587618	1265.981325	-80.841689	39.498837	1203.726649	-350.940020	29.132915	1215.928248	-101.365087	-128.226266	1257.843356	-182.276100	-116.432023	1269.643385	-290.186220	-31.888301	1142.671158	-39.162607	-43.830561	1117.650033	-405.758860	104.853471	1084.594410	-43.869706	190.806456	1072.024375	-57.862585	259.859009	1021.817736	-61.175708	202.446525	1104.173008	-73.430559	380.841373	940.732114	-101.354371	369.539858	923.772637	-208.373757	341.559314	804.766067	-73.307876	334.541343	716.950001	-87.137828	289.124027	643.566182	-78.540539	349.516373	714.522670	-124.408979	239.467333	513.143228	-71.199300	166.244397	484.262945	-99.536100	446.225110	410.184585	-123.160966	366.715735	391.982200	-49.842175	27.777144	1012.319623	-414.895495	100.897328	963.094866	-415.977329	128.083080	986.625580	-408.165010	140.477586	883.260598	-408.798293	240.918461	739.266860	-373.720377	228.071793	723.602557	-276.658045	153.319584	619.927148	-398.026999	122.527312	541.123560	-381.258384	54.574519	482.375655	-390.517882	126.701479	540.850501	-339.466769	-30.773376	380.745071	-392.250754	-107.283595	376.100064	-360.820749	140.410530	226.161418	-351.878246	58.718506	241.305968	-416.848871	-260.870611	980.260771	-230.713964	-76.134962	83.292654	-435.236052	-82.154668	79.523771	-38.030440	
1753	8.7650	430.543700	1453.816766	-54.285932	448.572454	1447.566140	-323.474224	393.809720	1505.713164	-192.856603	364.754619	1367.593065	-197.283440	534.413349	1133.429306	13.357889	723.043760	909.978779	-55.781794	544.936804	1139.919599	-435.897161	727.485982	902.372036	-391.395279	-154.636783	1216.610413	-233.140015	6.827778	1279.548382	-374.135909	6.511002	1264.950042	-80.461470	39.306820	1203.274026	-350.914775	29.267899	1214.703017	-101.046999	-128.259753	1256.405436	-182.648841	-116.720429	1268.625429	-290.075483	-32.072544	1140.072662	-39.802623	-43.426871	1117.206755	-406.014448	103.936010	1079.276924	-43.927444	189.689113	1064.855006	-57.311315	257.481445	1013.097825	-61.137444	202.138930	1096.933805	-72.701964	377.511112	930.709700	-101.240112	366.285418	913.490959	-206.285373	339.721572	794.505009	-72.462478	333.559386	706.046410	-86.704222	289.427522	632.101326	-78.302537	348.667322	704.089732	-124.172565	241.407827	501.442739	-71.313359	168.617193	471.473923	-99.370909	449.943707	402.240414	-123.224949	370.736147	382.375297	-50.032020	29.795983	1013.337018	-414.472148	103.827681	965.401923	-415.132051	130.705761	989.730315	-407.532949	144.868988	886.323637	-408.624330	247.674818	743.964357	-374.495361	236.082289	727.312774	-278.376098	157.934589	625.812680	-398.216227	125.498348	547.646711	-381.238829	56.301548	490.472121	-390.427355	128.887562	547.906586	-339.254704	-31.248551	391.554683	-392.025928	-107.769986	388.828271	-360.617453	136.416341	233.096015	-351.852485	54.987782	250.249661	-416.890512	-260.871310	980.232743	-230.819690	-76.130314	83.274385	-435.235260	-82.167213	79.511713	-38.036277	
1754	8.7700	430.210554	1453.510575	-54.823398	448.062645	1447.224403	-324.209859	393.384107	1504.921744	-193.097570	364.484764	1367.099169	-197.890621	534.315906	1133.343389	13.118973	723.009283	909.883868	-55.808505	544.465849	1139.496573	-436.008640	727.449677	902.371700	-391.363957	-154.793510	1215.411152	-233.103584	6.504193	1278.763214	-374.119360	6.480515	1263.622236	-80.164357	39.122527	1202.763509	-350.879855	29.405329	1213.280306	-100.678214	-128.164142	1254.552991	-183.511238	-117.029067	1267.429224	-289.926381	-32.308500	1137.359169	-40.473139	-42.968861	1116.582550	-406.294262	102.945921	1073.719400	-44.113666	188.499776	1057.397277	-57.119523	255.012118	1004.156408	-60.905532	201.753120	1089.258645	-72.006145	373.793717	920.257969	-100.982855	362.861968	903.089426	-205.598118	337.135843	783.432866	-71.908660	332.174438	694.913913	-86.466221	289.162864	620.366774	-78.110028	347.248923	693.194803	-123.872031	242.888280	489.453130	-71.309330	170.698241	458.102319	-99.433761	452.889348	394.066226	-123.220154	374.040352	372.589439	-50.000707	31.897405	1014.355066	-414.018036	106.832704	967.616728	-414.312591	133.057318	992.065118	-406.206445	149.336941	889.521195	-408.458470	254.598596	749.037412	-375.284720	243.257425	732.218926	-278.802416	162.988966	632.144888	-398.425017	128.902669	554.728752	-381.344862	58.479236	498.920284	-390.249878	132.399930	554.716930	-339.340722	-31.064287	402.567074	-391.740838	-107.499964	401.765502	-360.376479	132.955345	240.221742	-351.763546	51.951526	259.407121	-416.842402	-260.901923	980.186034	-230.890852	-76.134867	83.249853	-435.241840	-82.139172	79.500786	-38.035665	
1755	8.7750	429.897970	1453.248577	-55.409726	447.619539	1446.898290	-325.032032	393.116458	1504.741676	-194.066488	364.196126	1366.549766	-198.551490	534.181097	1133.262921	12.881031	722.974072	909.795216	-55.834861	544.066517	1139.366005	-436.470102	727.396365	902.400532	-391.286172	-154.925317	1214.143099	-233.053326	6.000586	1278.016197	-373.965748	6.382766	1262.067954	-79.522481	38.910328	1202.106983	-350.741628	29.504937	1211.789761	-100.289866	-128.220187	1253.098418	-182.890865	-117.344699	1266.347594	-289.770556	-32.542746	1134.570468	-41.030797	-42.478273	1116.056885	-406.592959	101.879395	1067.995344	-44.167411	187.068784	1049.725859	-56.907190	252.344102	994.944245	-60.863476	201.115470	1081.633444	-71.350154	369.716623	909.426797	-100.633829	359.111524	892.385038	-204.858778	334.175989	772.011579	-71.260396	330.282884	683.541210	-86.155241	288.279890	608.401589	-77.857099	345.349303	681.869351	-123.643807	243.844616	477.288822	-71.366720	172.330420	445.163692	-98.736808	455.211652	385.299944	-123.120407	375.921527	362.062801	-50.840564	34.068168	1015.384364	-413.577158	109.936847	970.175121	-413.590014	135.618437	994.962316	-405.489031	154.025663	892.924840	-408.271848	261.755670	754.301633	-375.959597	250.648812	737.487469	-279.232976	168.320331	638.788507	-398.668979	132.660260	561.983683	-381.529132	61.165119	507.772560	-390.235464	136.415038	562.090076	-339.531086	-30.032093	413.635848	-391.548197	-106.423659	414.783740	-360.146246	130.002551	247.431845	-351.596447	49.455699	268.685118	-416.886288	-260.930481	980.161100	-230.892382	-76.132609	83.240415	-435.244951	-82.160369	79.500744	-38.043434	
1756	8.7800	429.665032	1453.056331	-56.079629	447.038658	1446.517969	-325.916950	392.709047	1504.033045	-194.342817	363.963128	1366.052734	-199.266382	534.020228	1133.164833	12.584960	722.979596	909.708506	-55.868816	543.445906	1138.933859	-436.715552	727.315993	902.455375	-391.203839	-155.020562	1212.876258	-233.006468	5.556608	1277.143869	-373.872070	6.390322	1260.603495	-79.167955	38.739051	1201.488226	-350.675667	29.643687	1210.252863	-99.837432	-128.263937	1251.649989	-182.138303	-117.586894	1265.093999	-289.677374	-32.730157	1131.677208	-41.554461	-42.045954	1115.439042	-406.845396	100.765490	1062.166030	-44.174801	185.549451	1041.998233	-56.733774	249.652134	985.604423	-60.839251	200.361531	1073.546807	-70.922397	365.321945	898.300556	-100.163021	354.980831	881.296709	-204.030939	330.654911	760.260461	-70.621904	328.042004	671.892634	-85.928732	286.762834	596.107433	-77.878185	342.941737	670.549869	-123.325958	244.278411	464.494278	-72.008607	173.207036	431.879217	-98.413291	456.808778	376.802752	-122.783093	378.487116	352.965551	-49.857774	36.295664	1016.454741	-413.193681	113.133978	972.741594	-413.104299	138.265616	998.207186	-405.086006	158.953099	896.551008	-408.065599	269.040600	759.793969	-376.586313	258.314230	743.183126	-279.624024	173.939591	645.807749	-398.835652	137.005084	569.780814	-381.666489	64.562530	516.857099	-390.468492	140.853881	569.699487	-339.682899	-28.232106	425.187425	-391.480952	-104.503518	428.352039	-360.332892	127.611337	254.825562	-351.430983	47.605555	278.127109	-416.763613	-260.993498	980.085134	-230.869371	-76.124482	83.238398	-435.249776	-82.155660	79.498415	-38.039579	
1757	8.7850	429.447734	1452.906238	-56.820086	446.485255	1446.196225	-326.845604	392.345340	1503.578433	-195.047935	363.819873	1365.459852	-199.929874	533.895661	1133.025858	12.287457	723.049019	909.647571	-55.848546	542.726285	1138.497795	-437.087253	727.651634	902.771097	-391.504977	-155.014493	1211.520601	-233.016566	5.066287	1276.296254	-373.676211	6.816844	1259.148830	-79.362897	38.622795	1200.874993	-350.614283	29.828518	1208.477306	-99.426883	-128.720723	1250.154322	-181.783135	-117.778803	1263.784254	-289.508285	-32.808900	1128.892477	-42.045484	-41.579857	1114.785926	-407.139482	99.664046	1056.356311	-44.197068	183.936921	1034.220813	-56.530050	246.679818	976.241104	-60.818689	199.624744	1065.190592	-70.737315	360.494017	886.841765	-99.633557	350.533342	870.393801	-203.435064	327.017103	748.479228	-69.645724	324.923040	660.058471	-85.332828	284.746453	583.718410	-77.583282	340.006168	658.868931	-122.995028	243.792206	452.063728	-71.926867	172.284374	418.614916	-98.567905	457.730903	367.587084	-122.712071	379.941136	342.750176	-49.774100	38.568709	1017.606947	-412.895287	116.391533	975.599450	-412.844322	140.922395	1001.661092	-404.921539	164.158526	900.553425	-407.974059	276.508801	765.710362	-377.095105	266.094189	749.230782	-280.026868	180.038995	653.189636	-399.088554	141.724946	577.814691	-381.853516	68.327633	526.183978	-390.523454	145.765384	577.540483	-339.869801	-25.946374	436.302292	-391.329287	-102.144868	441.359822	-360.057646	125.760555	262.481606	-351.333433	46.354324	287.799053	-416.811893	-261.057447	980.009587	-230.718936	-76.306076	83.364780	-435.496778	-82.160374	79.474499	-38.037436	
